HIERARCHY
ROOT pelvis
{
  OFFSET 0 100 0
  CHANNELS 6 Xposition Yposition Zposition Zrotation Xrotation Yrotation
  JOINT pelvis_right_femur
  {
    OFFSET -10.78128 -3.44521 -0.5502486
    CHANNELS 3 Zrotation Xrotation Yrotation
    JOINT right_femur_tibia
    {
      OFFSET -0.8047443 -44.0398 -0.1307829
      CHANNELS 3 Zrotation Xrotation Yrotation
      JOINT right_tibia_foot
      {
        OFFSET 3.006224 -47.83518 -5
        CHANNELS 3 Zrotation Xrotation Yrotation
        End Site
        {
          OFFSET 0 -5 15
        }
      }
    }
  }
  JOINT pelvis_left_femur
  {
    OFFSET 10.78128 -3.44521 -0.5502486
    CHANNELS 3 Zrotation Xrotation Yrotation
    JOINT left_femur_tibia
    {
      OFFSET 0.8047443 -44.0398 -0.1307829
      CHANNELS 3 Zrotation Xrotation Yrotation
      JOINT left_tibia_foot
      {
        OFFSET -4.370144 -48.10324 -4.275266
        CHANNELS 3 Zrotation Xrotation Yrotation
        End Site
        {
          OFFSET 0 -5 15
        }
      }
    }
  }
  JOINT pelvis_spine1
  {
    OFFSET 0 6.468898 -3.129235
    CHANNELS 3 Zrotation Xrotation Yrotation
    JOINT spine1
    {
      OFFSET 0 23.15396 4.99043
      CHANNELS 3 Zrotation Xrotation Yrotation
      JOINT spine2
      {
        OFFSET 0 20.79997 -5.064912
        CHANNELS 3 Zrotation Xrotation Yrotation
        JOINT neck
        {
          OFFSET 0 14.38658 9.616178
          CHANNELS 3 Zrotation Xrotation Yrotation
          End Site
          {
            OFFSET 0 20 0
          }
        }
      }
      JOINT right_manubrium
      {
        OFFSET -5.722621 16.35077 3.967754
        CHANNELS 3 Zrotation Xrotation Yrotation
        JOINT right_clavicle
        {
          OFFSET -13.16364 1.694482 -4.693211
          CHANNELS 3 Zrotation Xrotation Yrotation
          JOINT right_humerus
          {
            OFFSET -28.5034 -0.3100689 -2.792744
            CHANNELS 3 Zrotation Xrotation Yrotation
            JOINT right_radius
            {
              OFFSET -25.15693 0.02248979 -1.271978
              CHANNELS 3 Zrotation Xrotation Yrotation
              End Site
              {
                OFFSET -15 0 0
              }
            }
          }
        }
      }
      JOINT left_manubrium
      {
        OFFSET 5.722621 16.35077 3.967754
        CHANNELS 3 Zrotation Xrotation Yrotation
        JOINT left_clavicle
        {
          OFFSET 13.16364 1.694482 -4.693211
          CHANNELS 3 Zrotation Xrotation Yrotation
          JOINT left_humerus
          {
            OFFSET 29.39168 -1.063119 -2.237045
            CHANNELS 3 Zrotation Xrotation Yrotation
            JOINT left_radius
            {
              OFFSET 24.59957 -0.9528479 0.9047498
              CHANNELS 3 Zrotation Xrotation Yrotation
              End Site
              {
                OFFSET 15 -0 -0
              }
            }
          }
        }
      }
    }
  }
}
MOTION
Frames: 7
Frame Time: 0.0416666666667
0 103.5113 0 2.213011 -2.889461 0.2029218 1.479671 -11.89897 6.067103 -0 35.07835 -0 -4.877499 -18.24105 -4.19431 -7.175889 14.23749 -24.64098 -0 4.495051 -0 -1.140948 -20.57296 21.6981 -4.537172 -3.032364 3.218776 2.06161 7.470334 -7.46611 0.35344 23.91851 7.835665 3.966775 -21.23176 7.966981 6.492138 -18.20558 11.09926 86.23958 35.58754 -21.39251 -0 0 15.37938 -8.281534 7.645214 5.093649 4.327293 -18.28682 -3.845679 -98.6766 40.79953 26.06202 0 0 -20.36773 -11.3918 15.91549 26.30913
0.1418854 103.287 1.426724 1.85529 -2.44772 0.2890738 1.947835 -13.85166 6.139277 -0 35.29159 -0 -5.192845 -16.68604 -4.225275 -6.915953 14.21427 -24.14446 -0 4.576035 -0 -0.9837768 -20.90982 21.56709 -4.354069 -2.847835 3.13502 2.13897 7.574162 -7.633762 0.3902355 23.64887 7.883963 4.050976 -21.70251 8.018129 6.546801 -18.19358 11.15068 86.38588 35.83062 -21.53413 -0 0 15.11971 -8.456424 7.876331 5.213596 4.457337 -18.62056 -3.685912 -98.18936 40.27007 25.66583 0 0 -20.62581 -10.64751 15.97569 25.68394
0.2744415 103.1138 3.081975 1.241527 -1.735806 0.4130112 2.727921 -16.95471 6.350104 -0 35.55961 -0 -5.717507 -14.18457 -4.254966 -6.503538 14.0367 -23.24702 -0 4.803714 -0 -0.5465397 -21.33717 21.39823 -4.017853 -2.569391 3.041517 2.297768 7.809069 -7.916461 0.4768043 23.192 7.91191 4.100222 -22.59764 8.158215 6.514465 -18.277 11.2552 86.70041 35.94867 -21.75289 -0 0 14.70539 -8.722365 8.173642 5.429671 4.646842 -19.19271 -3.393191 -97.31322 39.11536 24.99175 0 0 -20.97908 -9.059541 16.05823 24.29845
0.3843051 102.8701 4.980256 0.578483 -0.9648904 0.5571874 3.648031 -20.46433 6.418687 -0 34.04135 -0 -5.879854 -12.80832 -4.184094 -5.950302 14.33224 -22.78204 -0 5.081105 -0 -1.1568 -22.1915 20.64812 -3.495896 -2.184137 2.959066 2.380156 7.57995 -8.020181 0.6448488 22.8456 7.952067 4.205586 -23.20299 8.359193 6.382339 -18.1483 11.13011 86.79211 35.81248 -21.92453 -0 0 14.691 -8.505258 8.340998 5.197188 5.077504 -19.48741 -3.053438 -97.14635 38.78369 24.76501 0 0 -21.4777 -8.371737 16.22637 23.90647
0.4619191 102.5122 7.110093 -0.03996048 -0.1961571 0.7051108 4.559875 -23.75283 6.461542 -0 31.61838 -0 -5.84285 -12.21159 -4.069944 -5.387868 14.84308 -22.65076 -0 5.567869 -0 -2.276858 -23.13138 19.65631 -2.944866 -1.798007 2.886598 2.420772 7.096804 -8.009741 0.8570987 22.60041 7.998023 4.326351 -23.6227 8.614033 6.229229 -17.87029 10.88743 86.73974 35.65795 -22.0465 -0 0 14.84948 -8.036911 8.496337 4.727989 5.578095 -19.56913 -2.686287 -97.36408 38.92639 24.76374 0 0 -21.93101 -8.184861 16.51954 24.00793
0.4913127 102.0262 9.457402 -0.6161679 0.5997303 0.8477405 5.49072 -26.6728 6.558586 -0 28.51463 -0 -5.567832 -12.57965 -3.914076 -4.808739 15.59439 -23.04558 -0 6.436929 -0 -4.007869 -24.11744 18.42554 -2.363134 -1.440658 2.825884 2.395172 6.257518 -7.822401 1.159309 22.49803 8.031197 4.445653 -23.84948 8.987034 6.06988 -17.37464 10.47834 86.482 35.55045 -22.04584 -0 0 15.24263 -7.144869 8.641611 3.887325 6.150096 -19.31712 -2.210761 -98.16719 39.67751 25.15363 0 0 -22.17352 -8.549805 17.08354 24.65982
0.4624917 101.4461 12.02594 -1.130274 1.337765 1.002345 6.381575 -28.96512 6.707765 -0 25.56927 -0 -5.15513 -13.4773 -3.736369 -4.246849 16.42435 -23.81607 -0 7.79568 -0 -6.143205 -24.95998 17.05696 -1.796899 -1.121976 2.750046 2.297062 5.189457 -7.477403 1.534371 22.52931 8.038024 4.542954 -23.90238 9.449403 5.924077 -16.68783 9.956812 86.07312 35.5205 -21.86257 -0 0 15.75026 -6.007998 8.801683 2.818419 6.702248 -18.76704 -1.661 -99.36602 40.7921 25.82361 0 0 -22.10133 -9.238098 17.85408 25.60883
